Coordinates
version=1
nRows=34
nColumns=38
inDegrees=no

Units are S.I. units (second, meters, Newtons, ...)
If the header above contains a line with 'inDegrees', this indicates whether rotational values are in degrees (yes) or radians (no).

endheader
time	pelvis_tilt	pelvis_list	pelvis_rotation	pelvis_tx	pelvis_ty	pelvis_tz	hip_flexion_r	hip_adduction_r	hip_rotation_r	knee_angle_r	ankle_angle_r	subtalar_angle_r	mtp_angle_r	hip_flexion_l	hip_adduction_l	hip_rotation_l	knee_angle_l	ankle_angle_l	subtalar_angle_l	mtp_angle_l	lumbar_extension	lumbar_bending	lumbar_rotation	arm_flex_r	arm_add_r	arm_rot_r	elbow_flex_r	pro_sup_r	wrist_flex_r	wrist_dev_r	arm_flex_l	arm_add_l	arm_rot_l	elbow_flex_l	pro_sup_l	wrist_flex_l	wrist_dev_l
1.82	-3.08753	1.30075	1.54035	0.461816	-0.448788	1.00732	0.0234304	0.0521638	-0.154699	0.35148	-0.069934	0	0	0.573083	-0.0126526	-0.180112	0	-0.29828	0	0	0.134119	0.00296844	0.0996254	-0.295054	-0.371895	-0.151898	1.09631	1.51205	0	0	-0.268107	-0.14041	-0.505596	0.747165	1.11975	0	0
1.83	-3.10088	1.30151	1.551	0.462253	-0.463222	1.00618	0.0219096	0.0445231	-0.15416	0.379023	-0.0759998	0	0	0.577639	-0.00607737	-0.187952	0.0299458	-0.312189	0	0	0.137926	-0.00211245	0.101388	-0.29999	-0.363845	-0.155879	1.08372	1.51894	0	0	-0.271592	-0.14238	-0.503617	0.745299	1.11523	0	0
1.84	-3.1187	1.29943	1.56433	0.462475	-0.477724	1.0052	0.0265543	0.0355485	-0.150026	0.412546	-0.0873742	0	0	0.582547	0.000118766	-0.198023	0.0573043	-0.333167	0	0	0.145854	-0.00853558	0.104793	-0.303785	-0.355085	-0.157828	1.06591	1.52553	0	0	-0.275461	-0.144849	-0.502184	0.741226	1.11013	0	0
1.85	-3.13872	1.29512	1.57938	0.462424	-0.492141	1.00456	0.0373113	0.0260075	-0.141952	0.452097	-0.103527	0	0	0.590768	0.00226307	-0.214378	0.0916537	-0.347691	0	0	0.156672	-0.0165956	0.10805	-0.304715	-0.345249	-0.156723	1.04155	1.52975	0	0	-0.280251	-0.149198	-0.499842	0.735606	1.10872	0	0
1.86	3.12301	1.28928	1.59562	0.462531	-0.506401	1.00409	0.0540021	0.0150385	-0.131661	0.499525	-0.126279	0	0	0.594506	0.0037505	-0.222184	0.114806	-0.350091	0	0	0.170505	-0.0248311	0.10886	-0.302675	-0.342641	-0.140079	1.01319	1.50767	0	0	-0.287633	-0.153369	-0.497583	0.729944	1.10429	0	0
1.87	3.09829	1.28413	1.61579	0.462736	-0.52035	1.00401	0.0737699	0.00207351	-0.120887	0.552149	-0.155287	0	0	0.598883	0.00490231	-0.228978	0.14342	-0.331127	0	0	0.182142	-0.0336334	0.110786	-0.301042	-0.330527	-0.141396	0.983135	1.51917	0	0	-0.290633	-0.153682	-0.505653	0.72244	1.10924	0	0
1.88	3.06936	1.27987	1.64142	0.463123	-0.533924	1.00431	0.0952557	-0.0127251	-0.109237	0.606933	-0.187673	0	0	0.604181	0.00784024	-0.230185	0.176896	-0.312462	0	0	0.190651	-0.0440963	0.110275	-0.29678	-0.323236	-0.13269	0.95128	1.51413	0	0	-0.293987	-0.154647	-0.511496	0.716481	1.10823	0	0
1.89	3.03911	1.27816	1.66887	0.463638	-0.547339	1.00489	0.115725	-0.0277814	-0.0973258	0.662164	-0.225596	0	0	0.589393	0.00645559	-0.211339	0.194003	-0.294974	0	0	0.194698	-0.0548782	0.109298	-0.292249	-0.316566	-0.123477	0.919616	1.50729	0	0	-0.29683	-0.154904	-0.518408	0.712401	1.10668	0	0
1.9	3.0068	1.27526	1.70055	0.464353	-0.560277	1.00556	0.139713	-0.0440912	-0.0857375	0.718736	-0.267166	0	0	0.592596	0.0149307	-0.205554	0.225202	-0.278397	0	0	0.198476	-0.0672208	0.107285	-0.287641	-0.309792	-0.114318	0.887654	1.49777	0	0	-0.297713	-0.154984	-0.52659	0.708017	1.10574	0	0
1.91	2.97542	1.27399	1.73119	0.465098	-0.572884	1.00614	0.163557	-0.0595913	-0.0742081	0.77551	-0.307982	0	0	0.593026	0.0240404	-0.199592	0.254301	-0.259968	0	0	0.195046	-0.0797197	0.10226	-0.280534	-0.304831	-0.101772	0.858942	1.48754	0	0	-0.298934	-0.153047	-0.538544	0.708343	1.104	0	0
1.92	2.94806	1.27431	1.75607	0.465782	-0.585248	1.00654	0.187546	-0.0729219	-0.0628329	0.831879	-0.349783	0	0	0.591268	0.0312872	-0.197595	0.28168	-0.239648	0	0	0.189051	-0.0890735	0.0988678	-0.274845	-0.302778	-0.0871241	0.834111	1.47765	0	0	-0.30012	-0.151148	-0.547349	0.709164	1.10777	0	0
1.93	2.92435	1.27652	1.7749	0.466176	-0.597426	1.00687	0.211699	-0.0839857	-0.0522266	0.88696	-0.394706	0	0	0.585713	0.035704	-0.200874	0.30491	-0.219631	0	0	0.180766	-0.095784	0.0973629	-0.269979	-0.303451	-0.0685308	0.812624	1.46681	0	0	-0.30222	-0.149364	-0.553186	0.712627	1.11102	0	0
1.94	2.90317	1.28035	1.78873	0.466196	-0.609473	1.00728	0.235679	-0.092881	-0.0424407	0.938833	-0.443638	0	0	0.575061	0.0380084	-0.207139	0.321441	-0.200955	0	0	0.171225	-0.100962	0.0979213	-0.264122	-0.307191	-0.0410298	0.791223	1.44593	0	0	-0.305125	-0.148228	-0.555862	0.718217	1.11026	0	0
1.95	2.88569	1.2855	1.79655	0.465896	-0.621405	1.00792	0.259529	-0.0994961	-0.0326686	0.986793	-0.488158	0	0	0.560009	0.0384795	-0.215336	0.331931	-0.185401	0	0	0.160458	-0.103124	0.103719	-0.261598	-0.301707	-0.0391842	0.770714	1.46452	0	0	-0.303755	-0.147047	-0.556607	0.720114	1.11038	0	0
1.96	2.872	1.2909	1.79888	0.465379	-0.633255	1.00881	0.283364	-0.103905	-0.0233465	1.03039	-0.526025	0	0	0.542412	0.0375086	-0.225956	0.337814	-0.167736	0	0	0.150992	-0.103381	0.109065	-0.256651	-0.299188	-0.0281976	0.748226	1.47808	0	0	-0.303682	-0.145179	-0.557559	0.721711	1.10673	0	0
1.97	2.861	1.29584	1.79746	0.464735	-0.64497	1.00993	0.307467	-0.106565	-0.0123217	1.06999	-0.541181	0	0	0.523258	0.035754	-0.23787	0.33915	-0.152151	0	0	0.142685	-0.10253	0.113753	-0.249875	-0.298573	-0.0107934	0.724893	1.48878	0	0	-0.305107	-0.144307	-0.556158	0.722509	1.10633	0	0
1.98	2.85077	1.30081	1.7955	0.464128	-0.65663	1.01132	0.330788	-0.108523	-0.00140431	1.10628	-0.53496	0	0	0.502595	0.0337361	-0.252207	0.336986	-0.138442	0	0	0.13511	-0.101546	0.116328	-0.240552	-0.299118	0.0128587	0.699232	1.49949	0	0	-0.307548	-0.142235	-0.557675	0.723961	1.10401	0	0
1.99	2.84285	1.30479	1.79467	0.46377	-0.668336	1.01282	0.353699	-0.110849	0.00548117	1.1399	-0.508912	0	0	0.482641	0.0327002	-0.264477	0.332768	-0.129423	0	0	0.129277	-0.0995253	0.116378	-0.233857	-0.299787	0.0347867	0.676587	1.50746	0	0	-0.307735	-0.139574	-0.560742	0.721491	1.09793	0	0
2	2.83957	1.30868	1.79318	0.463731	-0.680071	1.01447	0.375275	-0.112907	0.00798662	1.17	-0.47192	0	0	0.463302	0.0319022	-0.273304	0.327866	-0.123289	0	0	0.124669	-0.0964449	0.112736	-0.2287	-0.300554	0.0561634	0.655602	1.51525	0	0	-0.307567	-0.137998	-0.56283	0.715918	1.0915	0	0
2.01	2.84154	1.31236	1.7896	0.463973	-0.691738	1.01616	0.396151	-0.114554	0.00691495	1.19617	-0.42438	0	0	0.44497	0.0310937	-0.278186	0.322743	-0.117699	0	0	0.123809	-0.0939546	0.0973243	-0.210201	-0.323404	0.162093	0.630401	1.42276	0	0	-0.316197	-0.135446	-0.570055	0.715158	1.07974	0	0
2.02	2.8506	1.31686	1.7819	0.464421	-0.703394	1.018	0.414948	-0.114867	0.00299553	1.21547	-0.389927	0	0	0.426565	0.0296425	-0.277858	0.317477	-0.114608	0	0	0.119133	-0.0868492	0.0913454	-0.214335	-0.318715	0.154582	0.618702	1.45741	0	0	-0.312109	-0.13454	-0.571113	0.703876	1.07897	0	0
2.03	2.86634	1.32187	1.76988	0.464982	-0.715042	1.01987	0.4319	-0.113748	-0.00281431	1.22819	-0.354157	0	0	0.409233	0.0271213	-0.273825	0.3144	-0.110967	0	0	0.114303	-0.077558	0.0830274	-0.220449	-0.316572	0.148687	0.611768	1.48414	0	0	-0.308038	-0.133627	-0.571176	0.691649	1.07637	0	0
2.04	2.88638	1.32738	1.75442	0.465567	-0.726661	1.02176	0.447338	-0.111449	-0.00936742	1.23437	-0.323219	0	0	0.391471	0.0237422	-0.269943	0.311846	-0.107017	0	0	0.108948	-0.0673281	0.0743335	-0.227636	-0.31587	0.143952	0.60743	1.50216	0	0	-0.30427	-0.132766	-0.570256	0.68007	1.07267	0	0
2.05	2.90859	1.33141	1.73688	0.466095	-0.738204	1.02354	0.463493	-0.108947	-0.0167454	1.23456	-0.295249	0	0	0.375084	0.0202406	-0.266175	0.309881	-0.103088	0	0	0.105459	-0.0572382	0.0653972	-0.23547	-0.314924	0.137727	0.603974	1.51543	0	0	-0.301609	-0.131951	-0.569128	0.669153	1.06708	0	0
2.06	2.9326	1.33445	1.7176	0.466489	-0.749742	1.02519	0.479706	-0.105881	-0.0245954	1.22964	-0.272311	0	0	0.358671	0.0166502	-0.26314	0.306821	-0.0994508	0	0	0.103235	-0.0484976	0.0563962	-0.242123	-0.312777	0.132182	0.598036	1.52237	0	0	-0.301449	-0.1312	-0.568797	0.662336	1.06202	0	0
2.07	2.95324	1.3366	1.70013	0.466793	-0.761062	1.0267	0.496671	-0.102994	-0.0308904	1.22117	-0.249213	0	0	0.342341	0.013792	-0.26225	0.302384	-0.0959827	0	0	0.101154	-0.0415253	0.0486057	-0.247697	-0.310022	0.125304	0.591846	1.52387	0	0	-0.302738	-0.13024	-0.568805	0.658788	1.05765	0	0
2.08	2.97455	1.33903	1.68111	0.466946	-0.77225	1.0282	0.512444	-0.098989	-0.0351959	1.20762	-0.226482	0	0	0.324971	0.0102963	-0.262587	0.296161	-0.0932202	0	0	0.0981884	-0.0345934	0.0418663	-0.252756	-0.307602	0.117767	0.586292	1.52116	0	0	-0.303803	-0.129078	-0.569118	0.655917	1.05387	0	0
2.09	2.99636	1.34163	1.66142	0.466949	-0.783381	1.02966	0.526743	-0.0942588	-0.0392236	1.18979	-0.199433	0	0	0.306973	0.00622249	-0.263493	0.28855	-0.09092	0	0	0.0969286	-0.0294276	0.0278013	-0.243674	-0.32615	0.198801	0.576033	1.40741	0	0	-0.312979	-0.127524	-0.57115	0.658975	1.0456	0	0
2.1	3.01726	1.34361	1.64234	0.466807	-0.79441	1.03099	0.540578	-0.0895916	-0.0432066	1.16813	-0.174899	0	0	0.288576	0.00235566	-0.264554	0.278091	-0.0913402	0	0	0.0931914	-0.0222373	0.0243564	-0.25186	-0.318525	0.169671	0.571283	1.41807	0	0	-0.311821	-0.127484	-0.569356	0.653676	1.05211	0	0
2.11	3.03669	1.34391	1.62419	0.46655	-0.80533	1.03207	0.55512	-0.0848084	-0.046461	1.14251	-0.162807	0	0	0.272245	-0.00151292	-0.2664	0.267803	-0.0914965	0	0	0.0920575	-0.0159984	0.0189837	-0.256054	-0.313147	0.153797	0.563308	1.42256	0	0	-0.313355	-0.127092	-0.567388	0.650871	1.04969	0	0
2.12	3.05496	1.34421	1.60692	0.466221	-0.81619	1.03301	0.56792	-0.0796226	-0.0491053	1.11242	-0.144718	0	0	0.256024	-0.00525069	-0.268498	0.257767	-0.092355	0	0	0.0904301	-0.0101348	0.0159186	-0.260703	-0.307867	0.137503	0.55594	1.42037	0	0	-0.311978	-0.12493	-0.570293	0.64814	1.04429	0	0
2.13	3.07465	1.34504	1.58811	0.465836	-0.827082	1.03383	0.578293	-0.0734277	-0.050652	1.07775	-0.127999	0	0	0.238484	-0.00903549	-0.270893	0.247033	-0.0931544	0	0	0.0880858	-0.0038708	0.0129647	-0.264243	-0.303482	0.123815	0.548218	1.41433	0	0	-0.310977	-0.123202	-0.571711	0.645585	1.03965	0	0
2.14	3.09327	1.34415	1.57079	0.465351	-0.837923	1.03431	0.589391	-0.0673988	-0.0510924	1.03844	-0.115334	0	0	0.222752	-0.0125991	-0.272769	0.236593	-0.093466	0	0	0.0878191	0.00186778	0.00943242	-0.267361	-0.299759	0.113709	0.540161	1.40663	0	0	-0.310864	-0.122298	-0.571947	0.643301	1.0363	0	0
2.15	3.10667	1.34193	1.55971	0.464984	-0.848706	1.03459	0.599848	-0.0630157	-0.051511	0.993178	-0.104565	0	0	0.207091	-0.0145226	-0.274614	0.222572	-0.0950579	0	0	0.0893184	0.00646713	0.00459066	-0.2697	-0.296139	0.105168	0.531233	1.39691	0	0	-0.310461	-0.121766	-0.571813	0.639657	1.03307	0	0
